<mxfile host="app.diagrams.net" agent="Mozilla/5.0 (Windows NT 10.0; Win64; x64) AppleWebKit/537.36 (KHTML, like Gecko) Chrome/129.0.0.0 Safari/537.36" version="24.7.16">
  <diagram name="Page-1" id="RIzhYvE4uyY5uXsKYo3j">
    <mxGraphModel grid="0" page="0" gridSize="10" guides="1" tooltips="1" connect="1" arrows="1" fold="1" pageScale="1" pageWidth="850" pageHeight="1100" math="0" shadow="0">
      <root>
        <mxCell id="0" />
        <mxCell id="1" parent="0" />
        <mxCell id="tto1qf9QNZa4tmT0ZDnJ-72" style="edgeStyle=orthogonalEdgeStyle;rounded=0;orthogonalLoop=1;jettySize=auto;html=1;exitX=0.5;exitY=0;exitDx=0;exitDy=0;entryX=1;entryY=0.5;entryDx=0;entryDy=0;" edge="1" parent="1" source="RMVoXnzCyHlNepIl677W-1" target="tto1qf9QNZa4tmT0ZDnJ-15">
          <mxGeometry relative="1" as="geometry" />
        </mxCell>
        <mxCell id="RMVoXnzCyHlNepIl677W-1" value="Usuario" style="swimlane;fontStyle=1;align=center;verticalAlign=top;childLayout=stackLayout;horizontal=1;startSize=26;horizontalStack=0;resizeParent=1;resizeParentMax=0;resizeLast=0;collapsible=1;marginBottom=0;whiteSpace=wrap;html=1;" vertex="1" parent="1">
          <mxGeometry x="374" y="140" width="160" height="170" as="geometry" />
        </mxCell>
        <mxCell id="RMVoXnzCyHlNepIl677W-2" value="-IDusuario: int" style="text;strokeColor=none;fillColor=none;align=left;verticalAlign=top;spacingLeft=4;spacingRight=4;overflow=hidden;rotatable=0;points=[[0,0.5],[1,0.5]];portConstraint=eastwest;whiteSpace=wrap;html=1;" vertex="1" parent="RMVoXnzCyHlNepIl677W-1">
          <mxGeometry y="26" width="160" height="34" as="geometry" />
        </mxCell>
        <mxCell id="RMVoXnzCyHlNepIl677W-3" value="" style="line;strokeWidth=1;fillColor=none;align=left;verticalAlign=middle;spacingTop=-1;spacingLeft=3;spacingRight=3;rotatable=0;labelPosition=right;points=[];portConstraint=eastwest;strokeColor=inherit;" vertex="1" parent="RMVoXnzCyHlNepIl677W-1">
          <mxGeometry y="60" width="160" height="8" as="geometry" />
        </mxCell>
        <mxCell id="RMVoXnzCyHlNepIl677W-4" value="+cadastrar()&lt;div&gt;+login()&lt;/div&gt;&lt;div&gt;+editar()&lt;/div&gt;&lt;div&gt;+contactar()&lt;/div&gt;&lt;div&gt;+avaliar()&lt;/div&gt;&lt;div&gt;+visulizar_historico()&lt;/div&gt;&lt;div&gt;&lt;br&gt;&lt;/div&gt;&lt;div&gt;&lt;br&gt;&lt;/div&gt;" style="text;strokeColor=none;fillColor=none;align=left;verticalAlign=top;spacingLeft=4;spacingRight=4;overflow=hidden;rotatable=0;points=[[0,0.5],[1,0.5]];portConstraint=eastwest;whiteSpace=wrap;html=1;" vertex="1" parent="RMVoXnzCyHlNepIl677W-1">
          <mxGeometry y="68" width="160" height="102" as="geometry" />
        </mxCell>
        <mxCell id="tto1qf9QNZa4tmT0ZDnJ-1" value="Guia" style="swimlane;fontStyle=1;align=center;verticalAlign=top;childLayout=stackLayout;horizontal=1;startSize=26;horizontalStack=0;resizeParent=1;resizeParentMax=0;resizeLast=0;collapsible=1;marginBottom=0;whiteSpace=wrap;html=1;" vertex="1" parent="1">
          <mxGeometry x="891" y="140" width="160" height="150" as="geometry" />
        </mxCell>
        <mxCell id="tto1qf9QNZa4tmT0ZDnJ-2" value="&lt;div&gt;&lt;span style=&quot;background-color: initial;&quot;&gt;-IDguia: int&lt;/span&gt;&lt;/div&gt;&lt;div&gt;&lt;span style=&quot;background-color: initial;&quot;&gt;-area_atuação: String&lt;/span&gt;&lt;br&gt;&lt;/div&gt;&lt;div&gt;-endereco: endereco&lt;/div&gt;" style="text;strokeColor=none;fillColor=none;align=left;verticalAlign=top;spacingLeft=4;spacingRight=4;overflow=hidden;rotatable=0;points=[[0,0.5],[1,0.5]];portConstraint=eastwest;whiteSpace=wrap;html=1;" vertex="1" parent="tto1qf9QNZa4tmT0ZDnJ-1">
          <mxGeometry y="26" width="160" height="44" as="geometry" />
        </mxCell>
        <mxCell id="tto1qf9QNZa4tmT0ZDnJ-3" value="" style="line;strokeWidth=1;fillColor=none;align=left;verticalAlign=middle;spacingTop=-1;spacingLeft=3;spacingRight=3;rotatable=0;labelPosition=right;points=[];portConstraint=eastwest;strokeColor=inherit;" vertex="1" parent="tto1qf9QNZa4tmT0ZDnJ-1">
          <mxGeometry y="70" width="160" height="8" as="geometry" />
        </mxCell>
        <mxCell id="tto1qf9QNZa4tmT0ZDnJ-4" value="+cadastrar()&lt;div&gt;+login()&lt;/div&gt;&lt;div&gt;+editar()&lt;/div&gt;&lt;div&gt;+contactar()&lt;/div&gt;" style="text;strokeColor=none;fillColor=none;align=left;verticalAlign=top;spacingLeft=4;spacingRight=4;overflow=hidden;rotatable=0;points=[[0,0.5],[1,0.5]];portConstraint=eastwest;whiteSpace=wrap;html=1;" vertex="1" parent="tto1qf9QNZa4tmT0ZDnJ-1">
          <mxGeometry y="78" width="160" height="72" as="geometry" />
        </mxCell>
        <mxCell id="tto1qf9QNZa4tmT0ZDnJ-6" value="Roteiro" style="swimlane;fontStyle=1;align=center;verticalAlign=top;childLayout=stackLayout;horizontal=1;startSize=26;horizontalStack=0;resizeParent=1;resizeParentMax=0;resizeLast=0;collapsible=1;marginBottom=0;whiteSpace=wrap;html=1;" vertex="1" parent="1">
          <mxGeometry x="96" y="120" width="160" height="210" as="geometry" />
        </mxCell>
        <mxCell id="tto1qf9QNZa4tmT0ZDnJ-7" value="-codigo_roteiro&lt;div&gt;&lt;div&gt;-passeios: String&lt;/div&gt;&lt;div&gt;-data: int&lt;/div&gt;&lt;div&gt;-hora: int&lt;/div&gt;&lt;div&gt;-destino: destino&lt;/div&gt;&lt;div&gt;&lt;br&gt;&lt;/div&gt;&lt;/div&gt;" style="text;strokeColor=none;fillColor=none;align=left;verticalAlign=top;spacingLeft=4;spacingRight=4;overflow=hidden;rotatable=0;points=[[0,0.5],[1,0.5]];portConstraint=eastwest;whiteSpace=wrap;html=1;" vertex="1" parent="tto1qf9QNZa4tmT0ZDnJ-6">
          <mxGeometry y="26" width="160" height="74" as="geometry" />
        </mxCell>
        <mxCell id="tto1qf9QNZa4tmT0ZDnJ-8" value="" style="line;strokeWidth=1;fillColor=none;align=left;verticalAlign=middle;spacingTop=-1;spacingLeft=3;spacingRight=3;rotatable=0;labelPosition=right;points=[];portConstraint=eastwest;strokeColor=inherit;" vertex="1" parent="tto1qf9QNZa4tmT0ZDnJ-6">
          <mxGeometry y="100" width="160" height="8" as="geometry" />
        </mxCell>
        <mxCell id="tto1qf9QNZa4tmT0ZDnJ-9" value="&lt;div&gt;+selecionar_destino()&lt;/div&gt;&lt;div&gt;&lt;span style=&quot;background-color: initial;&quot;&gt;+explorar_passeios()&lt;/span&gt;&lt;/div&gt;&lt;div&gt;&lt;span style=&quot;background-color: initial;&quot;&gt;+criar_roteiros()&lt;/span&gt;&lt;/div&gt;&lt;div&gt;&lt;span style=&quot;background-color: initial;&quot;&gt;+salvar_roteiros()&lt;/span&gt;&lt;/div&gt;&lt;div&gt;&lt;div&gt;+gerenciar_roteiros()&lt;/div&gt;&lt;/div&gt;&lt;div&gt;+notificar()&lt;/div&gt;&lt;div&gt;&lt;br&gt;&lt;/div&gt;" style="text;strokeColor=none;fillColor=none;align=left;verticalAlign=top;spacingLeft=4;spacingRight=4;overflow=hidden;rotatable=0;points=[[0,0.5],[1,0.5]];portConstraint=eastwest;whiteSpace=wrap;html=1;" vertex="1" parent="tto1qf9QNZa4tmT0ZDnJ-6">
          <mxGeometry y="108" width="160" height="102" as="geometry" />
        </mxCell>
        <mxCell id="tto1qf9QNZa4tmT0ZDnJ-14" value="&lt;b&gt;Destino&lt;/b&gt;" style="swimlane;fontStyle=1;align=center;verticalAlign=top;childLayout=stackLayout;horizontal=1;startSize=26;horizontalStack=0;resizeParent=1;resizeParentMax=0;resizeLast=0;collapsible=1;marginBottom=0;whiteSpace=wrap;html=1;" vertex="1" parent="1">
          <mxGeometry x="226" y="-70" width="160" height="108" as="geometry">
            <mxRectangle y="-590" width="80" height="30" as="alternateBounds" />
          </mxGeometry>
        </mxCell>
        <mxCell id="tto1qf9QNZa4tmT0ZDnJ-15" value="-codigo_destino: int&lt;div&gt;-estado: String&lt;/div&gt;&lt;div&gt;-cidade: String&lt;/div&gt;&lt;div&gt;&lt;br&gt;&lt;/div&gt;" style="text;strokeColor=none;fillColor=none;align=left;verticalAlign=top;spacingLeft=4;spacingRight=4;overflow=hidden;rotatable=0;points=[[0,0.5],[1,0.5]];portConstraint=eastwest;whiteSpace=wrap;html=1;" vertex="1" parent="tto1qf9QNZa4tmT0ZDnJ-14">
          <mxGeometry y="26" width="160" height="54" as="geometry" />
        </mxCell>
        <mxCell id="tto1qf9QNZa4tmT0ZDnJ-16" value="" style="line;strokeWidth=1;fillColor=none;align=left;verticalAlign=middle;spacingTop=-1;spacingLeft=3;spacingRight=3;rotatable=0;labelPosition=right;points=[];portConstraint=eastwest;strokeColor=inherit;" vertex="1" parent="tto1qf9QNZa4tmT0ZDnJ-14">
          <mxGeometry y="80" width="160" height="28" as="geometry" />
        </mxCell>
        <mxCell id="tto1qf9QNZa4tmT0ZDnJ-19" value="Pessoa" style="swimlane;fontStyle=1;align=center;verticalAlign=top;childLayout=stackLayout;horizontal=1;startSize=26;horizontalStack=0;resizeParent=1;resizeParentMax=0;resizeLast=0;collapsible=1;marginBottom=0;whiteSpace=wrap;html=1;" vertex="1" parent="1">
          <mxGeometry x="641" y="140" width="160" height="140" as="geometry" />
        </mxCell>
        <mxCell id="tto1qf9QNZa4tmT0ZDnJ-20" value="&lt;div&gt;-nome:String&lt;/div&gt;&lt;div&gt;-cpf: String&lt;/div&gt;&lt;div&gt;-email: String&lt;/div&gt;&lt;div&gt;-telefone: int&lt;/div&gt;" style="text;strokeColor=none;fillColor=none;align=left;verticalAlign=top;spacingLeft=4;spacingRight=4;overflow=hidden;rotatable=0;points=[[0,0.5],[1,0.5]];portConstraint=eastwest;whiteSpace=wrap;html=1;" vertex="1" parent="tto1qf9QNZa4tmT0ZDnJ-19">
          <mxGeometry y="26" width="160" height="74" as="geometry" />
        </mxCell>
        <mxCell id="tto1qf9QNZa4tmT0ZDnJ-21" value="" style="line;strokeWidth=1;fillColor=none;align=left;verticalAlign=middle;spacingTop=-1;spacingLeft=3;spacingRight=3;rotatable=0;labelPosition=right;points=[];portConstraint=eastwest;strokeColor=inherit;" vertex="1" parent="tto1qf9QNZa4tmT0ZDnJ-19">
          <mxGeometry y="100" width="160" height="8" as="geometry" />
        </mxCell>
        <mxCell id="tto1qf9QNZa4tmT0ZDnJ-22" value="&amp;nbsp;" style="text;strokeColor=none;fillColor=none;align=left;verticalAlign=top;spacingLeft=4;spacingRight=4;overflow=hidden;rotatable=0;points=[[0,0.5],[1,0.5]];portConstraint=eastwest;whiteSpace=wrap;html=1;" vertex="1" parent="tto1qf9QNZa4tmT0ZDnJ-19">
          <mxGeometry y="108" width="160" height="32" as="geometry" />
        </mxCell>
        <mxCell id="tto1qf9QNZa4tmT0ZDnJ-29" value="&lt;b&gt;Endereco&lt;/b&gt;" style="swimlane;fontStyle=1;align=center;verticalAlign=top;childLayout=stackLayout;horizontal=1;startSize=26;horizontalStack=0;resizeParent=1;resizeParentMax=0;resizeLast=0;collapsible=1;marginBottom=0;whiteSpace=wrap;html=1;" vertex="1" parent="1">
          <mxGeometry x="1093" y="140" width="160" height="168" as="geometry" />
        </mxCell>
        <mxCell id="tto1qf9QNZa4tmT0ZDnJ-30" value="-cep: String&lt;div&gt;-estado:&amp;nbsp;&lt;span style=&quot;background-color: initial;&quot;&gt;String&lt;/span&gt;&lt;/div&gt;&lt;div&gt;-cidade:&amp;nbsp;&lt;span style=&quot;background-color: initial;&quot;&gt;String&lt;/span&gt;&lt;/div&gt;&lt;div&gt;-rua:&amp;nbsp;&lt;span style=&quot;background-color: initial;&quot;&gt;String&lt;/span&gt;&lt;/div&gt;&lt;div&gt;-numero: int&lt;/div&gt;&lt;div&gt;-complemento:&amp;nbsp;&lt;span style=&quot;background-color: initial;&quot;&gt;String&lt;/span&gt;&lt;/div&gt;" style="text;strokeColor=none;fillColor=none;align=left;verticalAlign=top;spacingLeft=4;spacingRight=4;overflow=hidden;rotatable=0;points=[[0,0.5],[1,0.5]];portConstraint=eastwest;whiteSpace=wrap;html=1;" vertex="1" parent="tto1qf9QNZa4tmT0ZDnJ-29">
          <mxGeometry y="26" width="160" height="94" as="geometry" />
        </mxCell>
        <mxCell id="tto1qf9QNZa4tmT0ZDnJ-31" value="" style="line;strokeWidth=1;fillColor=none;align=left;verticalAlign=middle;spacingTop=-1;spacingLeft=3;spacingRight=3;rotatable=0;labelPosition=right;points=[];portConstraint=eastwest;strokeColor=inherit;" vertex="1" parent="tto1qf9QNZa4tmT0ZDnJ-29">
          <mxGeometry y="120" width="160" height="48" as="geometry" />
        </mxCell>
        <mxCell id="tto1qf9QNZa4tmT0ZDnJ-76" style="edgeStyle=orthogonalEdgeStyle;rounded=0;orthogonalLoop=1;jettySize=auto;html=1;exitX=1;exitY=0.25;exitDx=0;exitDy=0;entryX=0.069;entryY=1.008;entryDx=0;entryDy=0;entryPerimeter=0;" edge="1" parent="1" source="tto1qf9QNZa4tmT0ZDnJ-32" target="RMVoXnzCyHlNepIl677W-4">
          <mxGeometry relative="1" as="geometry">
            <mxPoint x="386" y="320" as="targetPoint" />
            <Array as="points">
              <mxPoint x="385" y="422" />
            </Array>
          </mxGeometry>
        </mxCell>
        <mxCell id="tto1qf9QNZa4tmT0ZDnJ-32" value="Notificação" style="swimlane;fontStyle=1;align=center;verticalAlign=top;childLayout=stackLayout;horizontal=1;startSize=26;horizontalStack=0;resizeParent=1;resizeParentMax=0;resizeLast=0;collapsible=1;marginBottom=0;whiteSpace=wrap;html=1;" vertex="1" parent="1">
          <mxGeometry x="96" y="400" width="160" height="86" as="geometry" />
        </mxCell>
        <mxCell id="tto1qf9QNZa4tmT0ZDnJ-33" value="-roteiro: roteiro" style="text;strokeColor=none;fillColor=none;align=left;verticalAlign=top;spacingLeft=4;spacingRight=4;overflow=hidden;rotatable=0;points=[[0,0.5],[1,0.5]];portConstraint=eastwest;whiteSpace=wrap;html=1;" vertex="1" parent="tto1qf9QNZa4tmT0ZDnJ-32">
          <mxGeometry y="26" width="160" height="26" as="geometry" />
        </mxCell>
        <mxCell id="tto1qf9QNZa4tmT0ZDnJ-34" value="" style="line;strokeWidth=1;fillColor=none;align=left;verticalAlign=middle;spacingTop=-1;spacingLeft=3;spacingRight=3;rotatable=0;labelPosition=right;points=[];portConstraint=eastwest;strokeColor=inherit;" vertex="1" parent="tto1qf9QNZa4tmT0ZDnJ-32">
          <mxGeometry y="52" width="160" height="8" as="geometry" />
        </mxCell>
        <mxCell id="tto1qf9QNZa4tmT0ZDnJ-35" value="+notificar_viagem()" style="text;strokeColor=none;fillColor=none;align=left;verticalAlign=top;spacingLeft=4;spacingRight=4;overflow=hidden;rotatable=0;points=[[0,0.5],[1,0.5]];portConstraint=eastwest;whiteSpace=wrap;html=1;" vertex="1" parent="tto1qf9QNZa4tmT0ZDnJ-32">
          <mxGeometry y="60" width="160" height="26" as="geometry" />
        </mxCell>
        <mxCell id="tto1qf9QNZa4tmT0ZDnJ-39" value="" style="endArrow=none;html=1;rounded=0;entryX=0;entryY=0.5;entryDx=0;entryDy=0;exitX=0.992;exitY=0.373;exitDx=0;exitDy=0;exitPerimeter=0;" edge="1" parent="1" source="tto1qf9QNZa4tmT0ZDnJ-3" target="tto1qf9QNZa4tmT0ZDnJ-30">
          <mxGeometry width="50" height="50" relative="1" as="geometry">
            <mxPoint x="1011" y="130" as="sourcePoint" />
            <mxPoint x="1081" y="50" as="targetPoint" />
          </mxGeometry>
        </mxCell>
        <mxCell id="tto1qf9QNZa4tmT0ZDnJ-89" style="edgeStyle=orthogonalEdgeStyle;rounded=0;orthogonalLoop=1;jettySize=auto;html=1;exitX=1;exitY=0.5;exitDx=0;exitDy=0;" edge="1" parent="1" source="tto1qf9QNZa4tmT0ZDnJ-54">
          <mxGeometry relative="1" as="geometry">
            <mxPoint x="881" y="230.14285714285688" as="targetPoint" />
          </mxGeometry>
        </mxCell>
        <mxCell id="tto1qf9QNZa4tmT0ZDnJ-54" value="Cadastra" style="text;html=1;align=center;verticalAlign=middle;whiteSpace=wrap;rounded=0;rotation=0;" vertex="1" parent="1">
          <mxGeometry x="821" y="220" width="55" height="20" as="geometry" />
        </mxCell>
        <mxCell id="tto1qf9QNZa4tmT0ZDnJ-62" value="Sugestao" style="swimlane;fontStyle=1;align=center;verticalAlign=top;childLayout=stackLayout;horizontal=1;startSize=26;horizontalStack=0;resizeParent=1;resizeParentMax=0;resizeLast=0;collapsible=1;marginBottom=0;whiteSpace=wrap;html=1;" vertex="1" parent="1">
          <mxGeometry x="-44" y="-70" width="160" height="86" as="geometry" />
        </mxCell>
        <mxCell id="tto1qf9QNZa4tmT0ZDnJ-63" value="-destino: destino" style="text;strokeColor=none;fillColor=none;align=left;verticalAlign=top;spacingLeft=4;spacingRight=4;overflow=hidden;rotatable=0;points=[[0,0.5],[1,0.5]];portConstraint=eastwest;whiteSpace=wrap;html=1;" vertex="1" parent="tto1qf9QNZa4tmT0ZDnJ-62">
          <mxGeometry y="26" width="160" height="26" as="geometry" />
        </mxCell>
        <mxCell id="tto1qf9QNZa4tmT0ZDnJ-64" value="" style="line;strokeWidth=1;fillColor=none;align=left;verticalAlign=middle;spacingTop=-1;spacingLeft=3;spacingRight=3;rotatable=0;labelPosition=right;points=[];portConstraint=eastwest;strokeColor=inherit;" vertex="1" parent="tto1qf9QNZa4tmT0ZDnJ-62">
          <mxGeometry y="52" width="160" height="8" as="geometry" />
        </mxCell>
        <mxCell id="tto1qf9QNZa4tmT0ZDnJ-65" value="+sugerir_passeio()" style="text;strokeColor=none;fillColor=none;align=left;verticalAlign=top;spacingLeft=4;spacingRight=4;overflow=hidden;rotatable=0;points=[[0,0.5],[1,0.5]];portConstraint=eastwest;whiteSpace=wrap;html=1;" vertex="1" parent="tto1qf9QNZa4tmT0ZDnJ-62">
          <mxGeometry y="60" width="160" height="26" as="geometry" />
        </mxCell>
        <mxCell id="tto1qf9QNZa4tmT0ZDnJ-67" value="" style="endArrow=diamondThin;endFill=1;endSize=24;html=1;rounded=0;exitX=-0.009;exitY=0.18;exitDx=0;exitDy=0;exitPerimeter=0;" edge="1" parent="1" source="RMVoXnzCyHlNepIl677W-4">
          <mxGeometry width="160" relative="1" as="geometry">
            <mxPoint x="346" y="224.58" as="sourcePoint" />
            <mxPoint x="256" y="224.58" as="targetPoint" />
          </mxGeometry>
        </mxCell>
        <mxCell id="tto1qf9QNZa4tmT0ZDnJ-73" style="edgeStyle=orthogonalEdgeStyle;rounded=0;orthogonalLoop=1;jettySize=auto;html=1;exitX=0;exitY=0.5;exitDx=0;exitDy=0;entryX=0.5;entryY=0;entryDx=0;entryDy=0;" edge="1" parent="1" source="tto1qf9QNZa4tmT0ZDnJ-15" target="tto1qf9QNZa4tmT0ZDnJ-6">
          <mxGeometry relative="1" as="geometry" />
        </mxCell>
        <mxCell id="tto1qf9QNZa4tmT0ZDnJ-74" value="" style="endArrow=none;html=1;rounded=0;" edge="1" parent="1">
          <mxGeometry width="50" height="50" relative="1" as="geometry">
            <mxPoint x="175.5" y="400" as="sourcePoint" />
            <mxPoint x="175.5" y="330" as="targetPoint" />
          </mxGeometry>
        </mxCell>
        <mxCell id="tto1qf9QNZa4tmT0ZDnJ-77" value="&lt;b&gt;&lt;font style=&quot;font-size: 14px;&quot;&gt;0 . . *&lt;/font&gt;&lt;/b&gt;" style="text;html=1;align=center;verticalAlign=middle;whiteSpace=wrap;rounded=0;" vertex="1" parent="1">
          <mxGeometry x="286" y="200" width="60" height="30" as="geometry" />
        </mxCell>
        <mxCell id="tto1qf9QNZa4tmT0ZDnJ-78" value="&lt;b&gt;&lt;font style=&quot;font-size: 14px;&quot;&gt;1 . . 1&lt;/font&gt;&lt;/b&gt;" style="text;html=1;align=center;verticalAlign=middle;whiteSpace=wrap;rounded=0;rotation=0;" vertex="1" parent="1">
          <mxGeometry x="556" y="230" width="60" height="30" as="geometry" />
        </mxCell>
        <mxCell id="tto1qf9QNZa4tmT0ZDnJ-79" value="&lt;b&gt;&lt;font style=&quot;font-size: 14px;&quot;&gt;1 . . 1&lt;/font&gt;&lt;/b&gt;" style="text;html=1;align=center;verticalAlign=middle;whiteSpace=wrap;rounded=0;rotation=0;" vertex="1" parent="1">
          <mxGeometry x="1043" y="190" width="60" height="30" as="geometry" />
        </mxCell>
        <mxCell id="tto1qf9QNZa4tmT0ZDnJ-80" value="&lt;b&gt;&lt;font style=&quot;font-size: 14px;&quot;&gt;1 . . 1&lt;/font&gt;&lt;/b&gt;" style="text;html=1;align=center;verticalAlign=middle;whiteSpace=wrap;rounded=0;rotation=0;" vertex="1" parent="1">
          <mxGeometry x="817" y="190" width="60" height="30" as="geometry" />
        </mxCell>
        <mxCell id="tto1qf9QNZa4tmT0ZDnJ-84" value="" style="endArrow=diamondThin;endFill=0;endSize=24;html=1;rounded=0;exitX=0;exitY=0.189;exitDx=0;exitDy=0;exitPerimeter=0;" edge="1" parent="1">
          <mxGeometry width="160" relative="1" as="geometry">
            <mxPoint x="96" y="165.9860000000001" as="sourcePoint" />
            <mxPoint x="36" y="16" as="targetPoint" />
            <Array as="points">
              <mxPoint x="36" y="166" />
            </Array>
          </mxGeometry>
        </mxCell>
        <mxCell id="lhS9f9cPqJ1gy4GVONjA-2" value="" style="endArrow=none;dashed=1;html=1;dashPattern=1 3;strokeWidth=2;rounded=0;" edge="1" parent="1" source="lhS9f9cPqJ1gy4GVONjA-1">
          <mxGeometry width="50" height="50" relative="1" as="geometry">
            <mxPoint x="-12" y="110" as="sourcePoint" />
            <mxPoint x="36" y="110" as="targetPoint" />
          </mxGeometry>
        </mxCell>
        <mxCell id="lhS9f9cPqJ1gy4GVONjA-3" value="&lt;font style=&quot;vertical-align: inherit;&quot;&gt;&lt;font style=&quot;vertical-align: inherit;&quot;&gt;&lt;font style=&quot;vertical-align: inherit;&quot;&gt;&lt;font style=&quot;vertical-align: inherit;&quot;&gt;&lt;font style=&quot;vertical-align: inherit;&quot;&gt;&lt;font style=&quot;vertical-align: inherit;&quot;&gt;&lt;font style=&quot;vertical-align: inherit;&quot;&gt;&lt;font style=&quot;vertical-align: inherit;&quot;&gt;Destino não é fortemente dependente de Sugestao&lt;/font&gt;&lt;/font&gt;&lt;/font&gt;&lt;/font&gt;&lt;/font&gt;&lt;/font&gt;&lt;/font&gt;&lt;/font&gt;" style="shape=note;size=12;whiteSpace=wrap;html=1;" vertex="1" parent="1">
          <mxGeometry x="96" y="-150" width="160" height="50" as="geometry" />
        </mxCell>
        <mxCell id="lhS9f9cPqJ1gy4GVONjA-4" value="" style="endArrow=diamondThin;endFill=0;endSize=24;html=1;rounded=0;" edge="1" parent="1">
          <mxGeometry width="160" relative="1" as="geometry">
            <mxPoint x="226" y="-40" as="sourcePoint" />
            <mxPoint x="116" y="-40" as="targetPoint" />
          </mxGeometry>
        </mxCell>
        <mxCell id="tto1qf9QNZa4tmT0ZDnJ-87" value="" style="endArrow=classic;html=1;rounded=0;" edge="1" parent="1">
          <mxGeometry width="50" height="50" relative="1" as="geometry">
            <mxPoint x="891" y="215" as="sourcePoint" />
            <mxPoint x="801" y="215" as="targetPoint" />
          </mxGeometry>
        </mxCell>
        <mxCell id="lhS9f9cPqJ1gy4GVONjA-5" value="" style="endArrow=none;dashed=1;html=1;dashPattern=1 3;strokeWidth=2;rounded=0;" edge="1" parent="1">
          <mxGeometry width="50" height="50" relative="1" as="geometry">
            <mxPoint x="186" y="-40" as="sourcePoint" />
            <mxPoint x="186" y="-100" as="targetPoint" />
          </mxGeometry>
        </mxCell>
        <mxCell id="tto1qf9QNZa4tmT0ZDnJ-102" style="edgeStyle=orthogonalEdgeStyle;rounded=0;orthogonalLoop=1;jettySize=auto;html=1;exitX=1;exitY=0.5;exitDx=0;exitDy=0;" edge="1" parent="1" source="tto1qf9QNZa4tmT0ZDnJ-90">
          <mxGeometry relative="1" as="geometry">
            <mxPoint x="616" y="270.33333333333326" as="targetPoint" />
          </mxGeometry>
        </mxCell>
        <mxCell id="tto1qf9QNZa4tmT0ZDnJ-90" value="Cadastra" style="text;html=1;align=center;verticalAlign=middle;whiteSpace=wrap;rounded=0;rotation=0;" vertex="1" parent="1">
          <mxGeometry x="556" y="260" width="55" height="20" as="geometry" />
        </mxCell>
        <mxCell id="tto1qf9QNZa4tmT0ZDnJ-92" value="&lt;b&gt;&lt;font style=&quot;font-size: 14px;&quot;&gt;* . . 1&lt;/font&gt;&lt;/b&gt;" style="text;html=1;align=center;verticalAlign=middle;whiteSpace=wrap;rounded=0;" vertex="1" parent="1">
          <mxGeometry x="136" y="-63" width="60" height="30" as="geometry" />
        </mxCell>
        <mxCell id="tto1qf9QNZa4tmT0ZDnJ-93" value="&lt;b&gt;&lt;font style=&quot;font-size: 14px;&quot;&gt;* . . 1&lt;/font&gt;&lt;/b&gt;" style="text;html=1;align=center;verticalAlign=middle;whiteSpace=wrap;rounded=0;" vertex="1" parent="1">
          <mxGeometry x="36" y="140" width="60" height="30" as="geometry" />
        </mxCell>
        <mxCell id="tto1qf9QNZa4tmT0ZDnJ-94" value="&lt;b&gt;&lt;font style=&quot;font-size: 14px;&quot;&gt;* . . 1&lt;/font&gt;&lt;/b&gt;" style="text;html=1;align=center;verticalAlign=middle;whiteSpace=wrap;rounded=0;rotation=-90;" vertex="1" parent="1">
          <mxGeometry x="136" y="30" width="60" height="30" as="geometry" />
        </mxCell>
        <mxCell id="tto1qf9QNZa4tmT0ZDnJ-95" value="&lt;b&gt;&lt;font style=&quot;font-size: 14px;&quot;&gt;* . . 1&lt;/font&gt;&lt;/b&gt;" style="text;html=1;align=center;verticalAlign=middle;whiteSpace=wrap;rounded=0;rotation=90;" vertex="1" parent="1">
          <mxGeometry x="436" y="50" width="60" height="30" as="geometry" />
        </mxCell>
        <mxCell id="tto1qf9QNZa4tmT0ZDnJ-101" style="edgeStyle=orthogonalEdgeStyle;rounded=0;orthogonalLoop=1;jettySize=auto;html=1;exitX=1;exitY=0.5;exitDx=0;exitDy=0;entryX=0.016;entryY=0.363;entryDx=0;entryDy=0;entryPerimeter=0;" edge="1" parent="1" source="RMVoXnzCyHlNepIl677W-4" target="tto1qf9QNZa4tmT0ZDnJ-22">
          <mxGeometry relative="1" as="geometry" />
        </mxCell>
        <mxCell id="tto1qf9QNZa4tmT0ZDnJ-103" value="&lt;b&gt;&lt;font style=&quot;font-size: 14px;&quot;&gt;* . . 1&lt;/font&gt;&lt;/b&gt;" style="text;html=1;align=center;verticalAlign=middle;whiteSpace=wrap;rounded=0;rotation=-90;" vertex="1" parent="1">
          <mxGeometry x="136" y="350" width="60" height="30" as="geometry" />
        </mxCell>
        <mxCell id="tto1qf9QNZa4tmT0ZDnJ-105" value="&lt;b&gt;&lt;font style=&quot;font-size: 14px;&quot;&gt;* . . 1&lt;/font&gt;&lt;/b&gt;" style="text;html=1;align=center;verticalAlign=middle;whiteSpace=wrap;rounded=0;rotation=0;" vertex="1" parent="1">
          <mxGeometry x="296" y="420" width="60" height="30" as="geometry" />
        </mxCell>
        <mxCell id="tto1qf9QNZa4tmT0ZDnJ-106" value="" style="endArrow=none;dashed=1;html=1;dashPattern=1 3;strokeWidth=2;rounded=0;" edge="1" parent="1" target="lhS9f9cPqJ1gy4GVONjA-1">
          <mxGeometry width="50" height="50" relative="1" as="geometry">
            <mxPoint x="-12" y="110" as="sourcePoint" />
            <mxPoint x="36" y="110" as="targetPoint" />
          </mxGeometry>
        </mxCell>
        <mxCell id="lhS9f9cPqJ1gy4GVONjA-1" value="&lt;font style=&quot;font-size: 8px;&quot;&gt;&lt;font style=&quot;vertical-align: inherit;&quot;&gt;&lt;font style=&quot;vertical-align: inherit;&quot;&gt;&lt;font style=&quot;vertical-align: inherit;&quot;&gt;&lt;font style=&quot;vertical-align: inherit;&quot;&gt;Relação de agregação, pois a classe Roteiro não é fortemente dependente de Sugestão.&lt;/font&gt;&lt;/font&gt;&lt;/font&gt;&lt;/font&gt;&lt;/font&gt;" style="shape=note;size=12;whiteSpace=wrap;html=1;" vertex="1" parent="1">
          <mxGeometry x="-192" y="80" width="200" height="40" as="geometry" />
        </mxCell>
        <mxCell id="tto1qf9QNZa4tmT0ZDnJ-110" style="edgeStyle=orthogonalEdgeStyle;rounded=0;orthogonalLoop=1;jettySize=auto;html=1;exitX=1;exitY=0.5;exitDx=0;exitDy=0;" edge="1" parent="1" source="tto1qf9QNZa4tmT0ZDnJ-108">
          <mxGeometry relative="1" as="geometry">
            <mxPoint x="737.3655169677735" y="350" as="targetPoint" />
          </mxGeometry>
        </mxCell>
        <mxCell id="tto1qf9QNZa4tmT0ZDnJ-111" style="edgeStyle=orthogonalEdgeStyle;rounded=0;orthogonalLoop=1;jettySize=auto;html=1;exitX=0;exitY=0.5;exitDx=0;exitDy=0;" edge="1" parent="1" source="tto1qf9QNZa4tmT0ZDnJ-108">
          <mxGeometry relative="1" as="geometry">
            <mxPoint x="641.0018389892579" y="350" as="targetPoint" />
          </mxGeometry>
        </mxCell>
        <mxCell id="tto1qf9QNZa4tmT0ZDnJ-108" value="Contactar" style="text;html=1;align=center;verticalAlign=middle;whiteSpace=wrap;rounded=0;" vertex="1" parent="1">
          <mxGeometry x="655.82" y="335" width="60" height="30" as="geometry" />
        </mxCell>
        <mxCell id="tto1qf9QNZa4tmT0ZDnJ-112" value="" style="endArrow=none;html=1;rounded=0;exitX=0.615;exitY=1.039;exitDx=0;exitDy=0;exitPerimeter=0;entryX=0.225;entryY=0.979;entryDx=0;entryDy=0;entryPerimeter=0;" edge="1" parent="1" source="RMVoXnzCyHlNepIl677W-4" target="tto1qf9QNZa4tmT0ZDnJ-4">
          <mxGeometry width="50" height="50" relative="1" as="geometry">
            <mxPoint x="587" y="308" as="sourcePoint" />
            <mxPoint x="637" y="258" as="targetPoint" />
            <Array as="points">
              <mxPoint x="472" y="356" />
              <mxPoint x="927" y="359" />
            </Array>
          </mxGeometry>
        </mxCell>
        <mxCell id="tto1qf9QNZa4tmT0ZDnJ-115" value="&lt;b&gt;&lt;font style=&quot;font-size: 14px;&quot;&gt;* . . *&lt;/font&gt;&lt;/b&gt;" style="text;html=1;align=center;verticalAlign=middle;whiteSpace=wrap;rounded=0;" vertex="1" parent="1">
          <mxGeometry x="529" y="330" width="60" height="30" as="geometry" />
        </mxCell>
      </root>
    </mxGraphModel>
  </diagram>
</mxfile>
